<svg aria-hidden="true" style="position: absolute; width: 0; height: 0; overflow: hidden;" version="1.1" xmlns="http://www.w3.org/2000/svg" xmlns:xlink="http://www.w3.org/1999/xlink">
<defs>
<symbol id="icon-facebook" viewBox="0 0 32 32">
<path fill="#1877f2" style="fill: var(--color1, #1877f2)" d="M31.997 15.999c0-8.836-7.163-15.999-15.999-15.999s-15.999 7.163-15.999 15.999c0 7.985 5.851 14.604 13.499 15.804v-11.18h-4.062v-4.625h4.062v-3.525c0-4.010 2.389-6.225 6.043-6.225 1.75 0 3.581 0.313 3.581 0.313v3.937h-2.017c-1.987 0-2.607 1.233-2.607 2.498v3.001h4.437l-0.709 4.625h-3.728v11.18c7.649-1.2 13.499-7.819 13.499-15.804z"></path>
</symbol>
<symbol id="icon-instagram" viewBox="0 0 32 32">
<path fill="#e4405f" style="fill: var(--color2, #e4405f)" d="M16 0c-4.347 0-4.889 0.020-6.596 0.096-1.704 0.080-2.864 0.348-3.884 0.744-1.052 0.408-1.945 0.956-2.835 1.845s-1.439 1.781-1.845 2.835c-0.396 1.020-0.665 2.18-0.744 3.884-0.080 1.707-0.096 2.249-0.096 6.596s0.020 4.889 0.096 6.596c0.080 1.703 0.348 2.864 0.744 3.884 0.408 1.051 0.956 1.945 1.845 2.835 0.889 0.888 1.781 1.439 2.835 1.845 1.021 0.395 2.181 0.665 3.884 0.744 1.707 0.080 2.249 0.096 6.596 0.096s4.889-0.020 6.596-0.096c1.703-0.080 2.864-0.349 3.884-0.744 1.051-0.408 1.945-0.957 2.835-1.845 0.888-0.889 1.439-1.78 1.845-2.835 0.395-1.020 0.665-2.181 0.744-3.884 0.080-1.707 0.096-2.249 0.096-6.596s-0.020-4.889-0.096-6.596c-0.080-1.703-0.349-2.865-0.744-3.884-0.408-1.052-0.957-1.945-1.845-2.835-0.889-0.889-1.78-1.439-2.835-1.845-1.020-0.396-2.181-0.665-3.884-0.744-1.707-0.080-2.249-0.096-6.596-0.096zM16 2.88c4.271 0 4.78 0.021 6.467 0.095 1.56 0.073 2.407 0.332 2.969 0.553 0.749 0.289 1.28 0.636 1.843 1.195 0.559 0.56 0.905 1.092 1.195 1.841 0.219 0.563 0.48 1.409 0.551 2.969 0.076 1.688 0.093 2.195 0.093 6.467s-0.020 4.78-0.099 6.467c-0.081 1.56-0.341 2.407-0.561 2.969-0.299 0.749-0.639 1.28-1.199 1.843-0.559 0.559-1.099 0.905-1.84 1.195-0.56 0.219-1.42 0.48-2.98 0.551-1.699 0.076-2.199 0.093-6.479 0.093-4.281 0-4.781-0.020-6.479-0.099-1.561-0.081-2.421-0.341-2.981-0.561-0.759-0.299-1.28-0.639-1.839-1.199-0.561-0.559-0.92-1.099-1.2-1.84-0.22-0.56-0.479-1.42-0.56-2.98-0.060-1.68-0.081-2.199-0.081-6.459 0-4.261 0.021-4.781 0.081-6.481 0.081-1.56 0.34-2.419 0.56-2.979 0.28-0.76 0.639-1.28 1.2-1.841 0.559-0.559 1.080-0.919 1.839-1.197 0.56-0.221 1.401-0.481 2.961-0.561 1.7-0.060 2.2-0.080 6.479-0.080zM16 7.784c-4.54 0-8.216 3.68-8.216 8.216 0 4.54 3.68 8.216 8.216 8.216 4.54 0 8.216-3.68 8.216-8.216 0-4.54-3.68-8.216-8.216-8.216zM16 21.333c-2.947 0-5.333-2.387-5.333-5.333s2.387-5.333 5.333-5.333 5.333 2.387 5.333 5.333-2.387 5.333-5.333 5.333zM26.461 7.46c0 1.060-0.861 1.92-1.92 1.92-1.060 0-1.92-0.861-1.92-1.92s0.861-1.919 1.92-1.919c1.057-0.001 1.92 0.86 1.92 1.919z"></path>
</symbol>
<symbol id="icon-x" viewBox="0 0 32 32">
<path d="M24.325 3h4.411l-9.636 11.013 11.336 14.987h-8.876l-6.952-9.089-7.955 9.089h-4.413l10.307-11.78-10.875-14.22h9.101l6.284 8.308zM22.777 26.36h2.444l-15.776-20.859h-2.623z"></path>
</symbol>
<symbol id="icon-whatsapp" viewBox="0 0 32 32">
<path fill="#25d366" style="fill: var(--color3, #25d366)" d="M23.331 19.176c-0.401-0.2-2.356-1.156-2.72-1.288-0.364-0.135-0.631-0.2-0.897 0.2-0.263 0.393-1.028 1.285-1.259 1.549-0.233 0.26-0.465 0.28-0.861 0.1-0.4-0.2-1.684-0.62-3.204-1.98-1.184-1.060-1.979-2.36-2.213-2.76-0.232-0.4-0.025-0.62 0.173-0.82 0.181-0.18 0.401-0.46 0.601-0.697 0.195-0.241 0.259-0.401 0.396-0.661 0.133-0.28 0.065-0.5-0.033-0.699-0.1-0.2-0.896-2.16-1.229-2.941-0.32-0.779-0.649-0.68-0.896-0.68-0.229-0.020-0.495-0.020-0.761-0.020s-0.697 0.099-1.063 0.479c-0.364 0.4-1.393 1.36-1.393 3.3s1.427 3.82 1.625 4.1c0.199 0.26 2.807 4.26 6.8 5.98 0.952 0.4 1.693 0.64 2.272 0.839 0.952 0.303 1.82 0.26 2.507 0.161 0.765-0.121 2.356-0.961 2.688-1.901 0.34-0.94 0.34-1.72 0.24-1.9-0.099-0.18-0.36-0.28-0.76-0.46zM16.081 29h-0.021c-2.36 0-4.699-0.64-6.74-1.84l-0.48-0.285-5 1.3 1.34-4.86-0.319-0.5c-1.32-2.101-2.021-4.521-2.021-7.013 0-7.26 5.94-13.18 13.256-13.18 3.539 0 6.86 1.38 9.361 3.88 2.5 2.479 3.879 5.8 3.879 9.32-0.005 7.259-5.947 13.18-13.247 13.18zM27.36 4.599c-3.040-2.939-7.040-4.599-11.3-4.599-8.776 0-15.921 7.112-15.925 15.857 0 2.795 0.732 5.52 2.127 7.927l-2.261 8.216 8.447-2.203c2.328 1.257 4.947 1.925 7.613 1.929h0.008c8.78 0 15.928-7.115 15.932-15.861 0-4.235-1.653-8.22-4.66-11.215z"></path>
</symbol>
<symbol id="icon-scissors" viewBox="0 0 48 48">
<path d="M8.998 22.127h7.45c1.11 0 2 0.9 2 2 0 0.541-0.21 1.031-0.56 1.391l0.010 0.020-5.1 5.1c-3.52 3.521-3.52 9.211 0 12.73 3.51 3.51 9.21 3.51 12.729 0 3.511-3.52 3.511-9.209 0-12.73-1.020-1.010-2.219-1.74-3.489-2.17l1.34-1.34h17.12c4.080 0 7.4-3.469 7.5-7.799 0-0.070 0.010-0.13 0-0.2-0.1-1.12-1.050-2-2.2-2h-12.42l8.97-8.97c0.82-0.82 0.871-2.11 0.15-2.97-0.050-0.061-0.1-0.101-0.15-0.15-3.119-2.979-7.93-3.090-10.81-0.21l-12.3 12.3h-2.18c0.6-1.2 0.94-2.561 0.94-4 0-4.97-4.030-9-9-9s-9 4.030-9 9c0 4.969 4.030 8.998 9 8.998zM12.998 13.127c0 2.21-1.79 4-4 4s-4-1.79-4-4 1.79-4 4-4 4 1.79 4 4zM21.988 34.178c1.56 1.561 1.56 4.090 0 5.65-1.56 1.568-4.090 1.568-5.66 0-1.56-1.561-1.56-4.090 0-5.65 1.57-1.571 4.1-1.571 5.66 0z"></path>
</symbol>
<symbol id="icon-arrow-left" viewBox="0 0 48 48">
<path d="M22.62 3.78c0.67-0.49 1.489-0.78 2.38-0.78 2.21 0 4 1.79 4 4v4c0 1.101 0.9 2 2 2h12c2.21 0 4 1.79 4 4v14c0 2.21-1.79 4-4 4l-12-0c-1.1 0-2 0.9-2 2v4c0 2.21-1.79 4-4 4-0.891 0-1.71-0.29-2.38-0.78l-20.15-16.67c-1.96-1.96-1.96-5.14 0-7.1l20.15-16.67z"></path>
</symbol>
<symbol id="icon-arrow-right" viewBox="0 0 48 48">
<path d="M25.38 3.78c-0.67-0.49-1.49-0.78-2.38-0.78-2.21 0-4 1.79-4 4v4c0 1.101-0.9 2-2 2h-12c-2.21 0-4 1.79-4 4v14c0 2.21 1.79 4 4 4h12c1.1 0 2 0.9 2 2v4c0 2.21 1.79 4 4 4 0.89 0 1.71-0.29 2.38-0.78l20.149-16.67c1.961-1.96 1.961-5.14 0-7.1l-20.149-16.67z"></path>
</symbol>
<symbol id="icon-cross" viewBox="0 0 20 20">
<path d="M14.348 14.849c-0.469 0.469-1.229 0.469-1.697 0l-2.651-3.030-2.651 3.029c-0.469 0.469-1.229 0.469-1.697 0-0.469-0.469-0.469-1.229 0-1.697l2.758-3.15-2.759-3.152c-0.469-0.469-0.469-1.228 0-1.697s1.228-0.469 1.697 0l2.652 3.031 2.651-3.031c0.469-0.469 1.228-0.469 1.697 0s0.469 1.229 0 1.697l-2.758 3.152 2.758 3.15c0.469 0.469 0.469 1.229 0 1.698z"></path>
</symbol>
<symbol id="icon-location-pin" viewBox="0 0 20 20">
<path d="M10 2.009c-2.762 0-5 2.229-5 4.99 0 4.774 5 11 5 11s5-6.227 5-11c0-2.76-2.238-4.99-5-4.99zM10 9.76c-1.492 0-2.7-1.209-2.7-2.7s1.208-2.7 2.7-2.7c1.49 0 2.699 1.209 2.699 2.7s-1.209 2.7-2.699 2.7z"></path>
</symbol>
<symbol id="icon-mail" viewBox="0 0 20 20">
<path d="M1.574 5.286c0.488 0.262 7.248 3.894 7.5 4.029s0.578 0.199 0.906 0.199c0.328 0 0.654-0.064 0.906-0.199s7.012-3.767 7.5-4.029c0.489-0.263 0.951-1.286 0.054-1.286h-16.919c-0.897 0-0.435 1.023 0.053 1.286zM18.613 7.489c-0.555 0.289-7.387 3.849-7.727 4.027s-0.578 0.199-0.906 0.199-0.566-0.021-0.906-0.199-7.133-3.739-7.688-4.028c-0.39-0.204-0.386 0.035-0.386 0.219s0 7.293 0 7.293c0 0.42 0.566 1 1 1h16c0.434 0 1-0.58 1-1 0 0 0-7.108 0-7.292s0.004-0.423-0.387-0.219z"></path>
</symbol>
<symbol id="icon-menu" viewBox="0 0 20 20">
<path d="M16.4 9h-12.8c-0.552 0-0.6 0.447-0.6 1s0.048 1 0.6 1h12.8c0.552 0 0.6-0.447 0.6-1s-0.048-1-0.6-1zM16.4 13h-12.8c-0.552 0-0.6 0.447-0.6 1s0.048 1 0.6 1h12.8c0.552 0 0.6-0.447 0.6-1s-0.048-1-0.6-1zM3.6 7h12.8c0.552 0 0.6-0.447 0.6-1s-0.048-1-0.6-1h-12.8c-0.552 0-0.6 0.447-0.6 1s0.048 1 0.6 1z"></path>
</symbol>
<symbol id="icon-phone" viewBox="0 0 20 20">
<path d="M11.229 11.229c-1.583 1.582-3.417 3.096-4.142 2.371-1.037-1.037-1.677-1.941-3.965-0.102-2.287 1.838-0.53 3.064 0.475 4.068 1.16 1.16 5.484 0.062 9.758-4.211 4.273-4.274 5.368-8.598 4.207-9.758-1.005-1.006-2.225-2.762-4.063-0.475s-0.936 2.927 0.103 3.965c0.722 0.725-0.791 2.559-2.373 4.142z"></path>
</symbol>
</defs>
</svg>
